<svg xmlns="http://www.w3.org/2000/svg" viewBox="0 0 300 80"><rect width="300" height="80" fill="white"/><g transform="translate(15,10)" fill="#111"><polygon points="0,10 15,0 15,25 30,15 30,40 15,30 15,55 0,45"/><rect x="38" y="0" width="12" height="55"/><polygon points="55,0 70,0 80,55 65,55"/><polygon points="80,0 95,55 80,55 65,0"/><rect x="100" y="0" width="12" height="55"/><polygon points="135,0 120,0 118,25 133,15 133,40 118,30 118,55 135,55"/><polygon points="145,0 160,0 160,25 145,25"/><rect x="145" y="25" width="12" height="30"/><rect x="158" y="42" width="12" height="13"/><polygon points="180,10 195,0 195,25 210,15 210,40 195,30 195,55 180,45"/><polygon points="220,0 235,0 225,55 210,55"/></g></svg>